{"title":"Kick Ass 2 2013 WEBRiP SUBS AC3 XViD - JUSTiCE","uid":8869979,"size":1481769590,"categoryP":"video","categoryS":"movies","magnet":"?xt=urn:btih:a495304863468c1fc8954f98950c043171246eb1&amp;dn=Kick+Ass+2+2013+WEBRiP+SUBS+AC3+XViD+-+JUSTiCE&amp;tr=udp%3A%2F%2Ftracker.openbittorrent.com%3A80&amp;tr=udp%3A%2F%2Fopen.demonii.com%3A1337&amp;tr=udp%3A%2F%2Ftracker.coppersurfer.tk%3A6969&amp;tr=udp%3A%2F%2Fexodus.desync.com%3A6969","seeders":2,"leechers":0,"uploader":"TeX","files":1,"time":1378035816,"description":"Kick Ass 2 2013 WEBRiP SUBS AC3 XViD - JUSTiCE\n\n\n\nSOURCE : VIDEO - smy THXS AUDIO - smy THXS\n\n\nVideo and audio both cleaned and given justice.\nCheck sample and see.....\n\nOk took the 720p ...changed the contrast and brightness levels.tweaked the rgb colours before adding some sharpness.\nOpted not to crop/blur as the subs are just too big.\nAudio is great / video looks better than it is ...when viewing in apps and seeing frame by frame,you can see some pixel break up\nissues.....however saying that this is STILL more than watchable.\n\n\n\nVideo\nID : 0\nFormat : MPEG-4 Visual\nFormat profile : Advanced Simple@L5\nFormat settings, BVOP : 2\nFormat settings, QPel : No\nFormat settings, GMC : No warppoints\nFormat settings, Matrix : Default (MPEG)\nMuxing mode : Packed bitstream\nCodec ID : XVID\nCodec ID/Hint : XviD\nDuration : 1h 38mn\nBit rate : 1 863 Kbps\nWidth : 720 pixels\nHeight : 288 pixels\nDisplay aspect ratio : 2.500\nFrame rate : 25.000 fps\nColor space : YUV\nChroma subsampling : 4:2:0\nBit depth : 8 bits\nScan type : Progressive\nCompression mode : Lossy\nBits/(Pixel*Frame) : 0.359\nStream size : 1.29 GiB (93%)\nWriting library : XviD 64\n\nAudio\nID : 1\nFormat : AC-3\nFormat/Info : Audio Coding 3\nMode extension : CM (complete main)\nFormat settings, Endianness : Big\nCodec ID : 2000\nDuration : 1h 38mn\nBit rate mode : Constant\nBit rate : 128 Kbps\nChannel(s) : 2 channels\nChannel positions : Front: L R\nSampling rate : 48.0 KHz\nBit depth : 16 bits\nCompression mode : Lossy\nStream size : 90.4 MiB (6%)\nAlignment : Aligned on interleaves\nInterleave, duration : 40 ms (1.00 video frame)\nInterleave, preload duration : 512 ms\n\n\n\n[IMG]http://lookpic.com/O/i2/1638/qAsgAkDi.png[/IMG]\n[IMG]http://lookpic.com/O/i2/599/j9zRQ513.png[/IMG]\n[IMG]http://lookpic.com/O/i2/1704/YubQ7GPR.png[/IMG]\n","torrent":{"xt":"urn:btih:a495304863468c1fc8954f98950c043171246eb1","amp;dn":"Kick+Ass+2+2013+WEBRiP+SUBS+AC3+XViD+-+JUSTiCE","amp;tr":["udp%3A%2F%2Ftracker.openbittorrent.com%3A80","udp%3A%2F%2Fopen.demonii.com%3A1337","udp%3A%2F%2Ftracker.coppersurfer.tk%3A6969","udp%3A%2F%2Fexodus.desync.com%3A6969"],"infoHash":"a495304863468c1fc8954f98950c043171246eb1","infoHashBuffer":{"type":"Buffer","data":[164,149,48,72,99,70,140,31,200,149,79,152,149,12,4,49,113,36,110,177]},"announce":[],"urlList":[]}}